<svg xmlns="http://www.w3.org/2000/svg" width="560" height="560" viewBox="0 0 560 560">
<rect width="560" height="560" fill="#FBFAFF"/>
<rect x="48" y="48" width="16" height="16" fill="#9A82E6"/>
<rect x="64" y="48" width="16" height="16" fill="#AFA4F0"/>
<rect x="80" y="48" width="16" height="16" fill="#C6B6EE"/>
<rect x="96" y="48" width="16" height="16" fill="#8CC7F2"/>
<rect x="112" y="48" width="16" height="16" fill="#9A82E6"/>
<rect x="128" y="48" width="16" height="16" fill="#AFA4F0"/>
<rect x="144" y="48" width="16" height="16" fill="#C6B6EE"/>
<rect x="208" y="48" width="16" height="16" fill="#C6B6EE"/>
<rect x="256" y="48" width="16" height="16" fill="#AFA4F0"/>
<rect x="272" y="48" width="16" height="16" fill="#C6B6EE"/>
<rect x="288" y="48" width="16" height="16" fill="#8CC7F2"/>
<rect x="304" y="48" width="16" height="16" fill="#9A82E6"/>
<rect x="352" y="48" width="16" height="16" fill="#8CC7F2"/>
<rect x="400" y="48" width="16" height="16" fill="#C6B6EE"/>
<rect x="416" y="48" width="16" height="16" fill="#8CC7F2"/>
<rect x="432" y="48" width="16" height="16" fill="#9A82E6"/>
<rect x="448" y="48" width="16" height="16" fill="#AFA4F0"/>
<rect x="464" y="48" width="16" height="16" fill="#C6B6EE"/>
<rect x="480" y="48" width="16" height="16" fill="#8CC7F2"/>
<rect x="496" y="48" width="16" height="16" fill="#9A82E6"/>
<rect x="48" y="64" width="16" height="16" fill="#8CC7F2"/>
<rect x="144" y="64" width="16" height="16" fill="#AFA4F0"/>
<rect x="192" y="64" width="16" height="16" fill="#9A82E6"/>
<rect x="272" y="64" width="16" height="16" fill="#AFA4F0"/>
<rect x="288" y="64" width="16" height="16" fill="#C6B6EE"/>
<rect x="304" y="64" width="16" height="16" fill="#8CC7F2"/>
<rect x="320" y="64" width="16" height="16" fill="#9A82E6"/>
<rect x="336" y="64" width="16" height="16" fill="#AFA4F0"/>
<rect x="352" y="64" width="16" height="16" fill="#C6B6EE"/>
<rect x="368" y="64" width="16" height="16" fill="#8CC7F2"/>
<rect x="400" y="64" width="16" height="16" fill="#AFA4F0"/>
<rect x="496" y="64" width="16" height="16" fill="#8CC7F2"/>
<rect x="48" y="80" width="16" height="16" fill="#C6B6EE"/>
<rect x="80" y="80" width="16" height="16" fill="#9A82E6"/>
<rect x="96" y="80" width="16" height="16" fill="#AFA4F0"/>
<rect x="112" y="80" width="16" height="16" fill="#C6B6EE"/>
<rect x="144" y="80" width="16" height="16" fill="#9A82E6"/>
<rect x="176" y="80" width="16" height="16" fill="#C6B6EE"/>
<rect x="224" y="80" width="16" height="16" fill="#AFA4F0"/>
<rect x="304" y="80" width="16" height="16" fill="#C6B6EE"/>
<rect x="336" y="80" width="16" height="16" fill="#9A82E6"/>
<rect x="368" y="80" width="16" height="16" fill="#C6B6EE"/>
<rect x="400" y="80" width="16" height="16" fill="#9A82E6"/>
<rect x="432" y="80" width="16" height="16" fill="#C6B6EE"/>
<rect x="448" y="80" width="16" height="16" fill="#8CC7F2"/>
<rect x="464" y="80" width="16" height="16" fill="#9A82E6"/>
<rect x="496" y="80" width="16" height="16" fill="#C6B6EE"/>
<rect x="48" y="96" width="16" height="16" fill="#AFA4F0"/>
<rect x="80" y="96" width="16" height="16" fill="#8CC7F2"/>
<rect x="96" y="96" width="16" height="16" fill="#9A82E6"/>
<rect x="112" y="96" width="16" height="16" fill="#AFA4F0"/>
<rect x="144" y="96" width="16" height="16" fill="#8CC7F2"/>
<rect x="192" y="96" width="16" height="16" fill="#C6B6EE"/>
<rect x="240" y="96" width="16" height="16" fill="#AFA4F0"/>
<rect x="256" y="96" width="16" height="16" fill="#C6B6EE"/>
<rect x="336" y="96" width="16" height="16" fill="#8CC7F2"/>
<rect x="400" y="96" width="16" height="16" fill="#8CC7F2"/>
<rect x="432" y="96" width="16" height="16" fill="#AFA4F0"/>
<rect x="448" y="96" width="16" height="16" fill="#C6B6EE"/>
<rect x="464" y="96" width="16" height="16" fill="#8CC7F2"/>
<rect x="496" y="96" width="16" height="16" fill="#AFA4F0"/>
<rect x="48" y="112" width="16" height="16" fill="#9A82E6"/>
<rect x="80" y="112" width="16" height="16" fill="#C6B6EE"/>
<rect x="96" y="112" width="16" height="16" fill="#8CC7F2"/>
<rect x="112" y="112" width="16" height="16" fill="#9A82E6"/>
<rect x="144" y="112" width="16" height="16" fill="#C6B6EE"/>
<rect x="192" y="112" width="16" height="16" fill="#AFA4F0"/>
<rect x="240" y="112" width="16" height="16" fill="#9A82E6"/>
<rect x="256" y="112" width="16" height="16" fill="#AFA4F0"/>
<rect x="272" y="112" width="16" height="16" fill="#C6B6EE"/>
<rect x="288" y="112" width="16" height="16" fill="#8CC7F2"/>
<rect x="320" y="112" width="16" height="16" fill="#AFA4F0"/>
<rect x="336" y="112" width="16" height="16" fill="#C6B6EE"/>
<rect x="352" y="112" width="16" height="16" fill="#8CC7F2"/>
<rect x="400" y="112" width="16" height="16" fill="#C6B6EE"/>
<rect x="432" y="112" width="16" height="16" fill="#9A82E6"/>
<rect x="448" y="112" width="16" height="16" fill="#AFA4F0"/>
<rect x="464" y="112" width="16" height="16" fill="#C6B6EE"/>
<rect x="496" y="112" width="16" height="16" fill="#9A82E6"/>
<rect x="48" y="128" width="16" height="16" fill="#8CC7F2"/>
<rect x="144" y="128" width="16" height="16" fill="#AFA4F0"/>
<rect x="208" y="128" width="16" height="16" fill="#AFA4F0"/>
<rect x="224" y="128" width="16" height="16" fill="#C6B6EE"/>
<rect x="240" y="128" width="16" height="16" fill="#8CC7F2"/>
<rect x="272" y="128" width="16" height="16" fill="#AFA4F0"/>
<rect x="288" y="128" width="16" height="16" fill="#C6B6EE"/>
<rect x="304" y="128" width="16" height="16" fill="#8CC7F2"/>
<rect x="320" y="128" width="16" height="16" fill="#9A82E6"/>
<rect x="352" y="128" width="16" height="16" fill="#C6B6EE"/>
<rect x="368" y="128" width="16" height="16" fill="#8CC7F2"/>
<rect x="400" y="128" width="16" height="16" fill="#AFA4F0"/>
<rect x="496" y="128" width="16" height="16" fill="#8CC7F2"/>
<rect x="48" y="144" width="16" height="16" fill="#C6B6EE"/>
<rect x="64" y="144" width="16" height="16" fill="#8CC7F2"/>
<rect x="80" y="144" width="16" height="16" fill="#9A82E6"/>
<rect x="96" y="144" width="16" height="16" fill="#AFA4F0"/>
<rect x="112" y="144" width="16" height="16" fill="#C6B6EE"/>
<rect x="128" y="144" width="16" height="16" fill="#8CC7F2"/>
<rect x="144" y="144" width="16" height="16" fill="#9A82E6"/>
<rect x="176" y="144" width="16" height="16" fill="#C6B6EE"/>
<rect x="208" y="144" width="16" height="16" fill="#9A82E6"/>
<rect x="240" y="144" width="16" height="16" fill="#C6B6EE"/>
<rect x="272" y="144" width="16" height="16" fill="#9A82E6"/>
<rect x="304" y="144" width="16" height="16" fill="#C6B6EE"/>
<rect x="336" y="144" width="16" height="16" fill="#9A82E6"/>
<rect x="368" y="144" width="16" height="16" fill="#C6B6EE"/>
<rect x="400" y="144" width="16" height="16" fill="#9A82E6"/>
<rect x="416" y="144" width="16" height="16" fill="#AFA4F0"/>
<rect x="432" y="144" width="16" height="16" fill="#C6B6EE"/>
<rect x="448" y="144" width="16" height="16" fill="#8CC7F2"/>
<rect x="464" y="144" width="16" height="16" fill="#9A82E6"/>
<rect x="480" y="144" width="16" height="16" fill="#AFA4F0"/>
<rect x="496" y="144" width="16" height="16" fill="#C6B6EE"/>
<rect x="176" y="160" width="16" height="16" fill="#AFA4F0"/>
<rect x="224" y="160" width="16" height="16" fill="#9A82E6"/>
<rect x="288" y="160" width="16" height="16" fill="#9A82E6"/>
<rect x="320" y="160" width="16" height="16" fill="#C6B6EE"/>
<rect x="368" y="160" width="16" height="16" fill="#AFA4F0"/>
<rect x="48" y="176" width="16" height="16" fill="#9A82E6"/>
<rect x="64" y="176" width="16" height="16" fill="#AFA4F0"/>
<rect x="80" y="176" width="16" height="16" fill="#C6B6EE"/>
<rect x="112" y="176" width="16" height="16" fill="#9A82E6"/>
<rect x="128" y="176" width="16" height="16" fill="#AFA4F0"/>
<rect x="144" y="176" width="16" height="16" fill="#C6B6EE"/>
<rect x="160" y="176" width="16" height="16" fill="#8CC7F2"/>
<rect x="176" y="176" width="16" height="16" fill="#9A82E6"/>
<rect x="240" y="176" width="16" height="16" fill="#9A82E6"/>
<rect x="304" y="176" width="16" height="16" fill="#9A82E6"/>
<rect x="320" y="176" width="16" height="16" fill="#AFA4F0"/>
<rect x="368" y="176" width="16" height="16" fill="#9A82E6"/>
<rect x="384" y="176" width="16" height="16" fill="#AFA4F0"/>
<rect x="400" y="176" width="16" height="16" fill="#C6B6EE"/>
<rect x="464" y="176" width="16" height="16" fill="#C6B6EE"/>
<rect x="128" y="192" width="16" height="16" fill="#9A82E6"/>
<rect x="160" y="192" width="16" height="16" fill="#C6B6EE"/>
<rect x="192" y="192" width="16" height="16" fill="#9A82E6"/>
<rect x="224" y="192" width="16" height="16" fill="#C6B6EE"/>
<rect x="240" y="192" width="16" height="16" fill="#8CC7F2"/>
<rect x="256" y="192" width="16" height="16" fill="#9A82E6"/>
<rect x="304" y="192" width="16" height="16" fill="#8CC7F2"/>
<rect x="320" y="192" width="16" height="16" fill="#9A82E6"/>
<rect x="336" y="192" width="16" height="16" fill="#AFA4F0"/>
<rect x="368" y="192" width="16" height="16" fill="#8CC7F2"/>
<rect x="384" y="192" width="16" height="16" fill="#9A82E6"/>
<rect x="400" y="192" width="16" height="16" fill="#AFA4F0"/>
<rect x="432" y="192" width="16" height="16" fill="#8CC7F2"/>
<rect x="496" y="192" width="16" height="16" fill="#8CC7F2"/>
<rect x="112" y="208" width="16" height="16" fill="#C6B6EE"/>
<rect x="144" y="208" width="16" height="16" fill="#9A82E6"/>
<rect x="176" y="208" width="16" height="16" fill="#C6B6EE"/>
<rect x="208" y="208" width="16" height="16" fill="#9A82E6"/>
<rect x="224" y="208" width="16" height="16" fill="#AFA4F0"/>
<rect x="240" y="208" width="16" height="16" fill="#C6B6EE"/>
<rect x="272" y="208" width="16" height="16" fill="#9A82E6"/>
<rect x="368" y="208" width="16" height="16" fill="#C6B6EE"/>
<rect x="384" y="208" width="16" height="16" fill="#8CC7F2"/>
<rect x="448" y="208" width="16" height="16" fill="#8CC7F2"/>
<rect x="480" y="208" width="16" height="16" fill="#AFA4F0"/>
<rect x="496" y="208" width="16" height="16" fill="#C6B6EE"/>
<rect x="128" y="224" width="16" height="16" fill="#C6B6EE"/>
<rect x="160" y="224" width="16" height="16" fill="#9A82E6"/>
<rect x="192" y="224" width="16" height="16" fill="#C6B6EE"/>
<rect x="240" y="224" width="16" height="16" fill="#AFA4F0"/>
<rect x="256" y="224" width="16" height="16" fill="#C6B6EE"/>
<rect x="272" y="224" width="16" height="16" fill="#8CC7F2"/>
<rect x="320" y="224" width="16" height="16" fill="#C6B6EE"/>
<rect x="336" y="224" width="16" height="16" fill="#8CC7F2"/>
<rect x="368" y="224" width="16" height="16" fill="#AFA4F0"/>
<rect x="400" y="224" width="16" height="16" fill="#8CC7F2"/>
<rect x="448" y="224" width="16" height="16" fill="#C6B6EE"/>
<rect x="480" y="224" width="16" height="16" fill="#9A82E6"/>
<rect x="112" y="240" width="16" height="16" fill="#9A82E6"/>
<rect x="144" y="240" width="16" height="16" fill="#C6B6EE"/>
<rect x="176" y="240" width="16" height="16" fill="#9A82E6"/>
<rect x="208" y="240" width="16" height="16" fill="#C6B6EE"/>
<rect x="224" y="240" width="16" height="16" fill="#8CC7F2"/>
<rect x="272" y="240" width="16" height="16" fill="#C6B6EE"/>
<rect x="320" y="240" width="16" height="16" fill="#AFA4F0"/>
<rect x="352" y="240" width="16" height="16" fill="#8CC7F2"/>
<rect x="368" y="240" width="16" height="16" fill="#9A82E6"/>
<rect x="384" y="240" width="16" height="16" fill="#AFA4F0"/>
<rect x="400" y="240" width="16" height="16" fill="#C6B6EE"/>
<rect x="416" y="240" width="16" height="16" fill="#8CC7F2"/>
<rect x="432" y="240" width="16" height="16" fill="#9A82E6"/>
<rect x="448" y="240" width="16" height="16" fill="#AFA4F0"/>
<rect x="480" y="240" width="16" height="16" fill="#8CC7F2"/>
<rect x="496" y="240" width="16" height="16" fill="#9A82E6"/>
<rect x="96" y="256" width="16" height="16" fill="#C6B6EE"/>
<rect x="128" y="256" width="16" height="16" fill="#9A82E6"/>
<rect x="160" y="256" width="16" height="16" fill="#C6B6EE"/>
<rect x="192" y="256" width="16" height="16" fill="#9A82E6"/>
<rect x="224" y="256" width="16" height="16" fill="#C6B6EE"/>
<rect x="272" y="256" width="16" height="16" fill="#AFA4F0"/>
<rect x="304" y="256" width="16" height="16" fill="#8CC7F2"/>
<rect x="320" y="256" width="16" height="16" fill="#9A82E6"/>
<rect x="400" y="256" width="16" height="16" fill="#AFA4F0"/>
<rect x="416" y="256" width="16" height="16" fill="#C6B6EE"/>
<rect x="448" y="256" width="16" height="16" fill="#9A82E6"/>
<rect x="496" y="256" width="16" height="16" fill="#8CC7F2"/>
<rect x="80" y="272" width="16" height="16" fill="#9A82E6"/>
<rect x="112" y="272" width="16" height="16" fill="#C6B6EE"/>
<rect x="144" y="272" width="16" height="16" fill="#9A82E6"/>
<rect x="176" y="272" width="16" height="16" fill="#C6B6EE"/>
<rect x="208" y="272" width="16" height="16" fill="#9A82E6"/>
<rect x="256" y="272" width="16" height="16" fill="#8CC7F2"/>
<rect x="320" y="272" width="16" height="16" fill="#8CC7F2"/>
<rect x="336" y="272" width="16" height="16" fill="#9A82E6"/>
<rect x="368" y="272" width="16" height="16" fill="#C6B6EE"/>
<rect x="384" y="272" width="16" height="16" fill="#8CC7F2"/>
<rect x="400" y="272" width="16" height="16" fill="#9A82E6"/>
<rect x="448" y="272" width="16" height="16" fill="#8CC7F2"/>
<rect x="480" y="272" width="16" height="16" fill="#AFA4F0"/>
<rect x="496" y="272" width="16" height="16" fill="#C6B6EE"/>
<rect x="96" y="288" width="16" height="16" fill="#9A82E6"/>
<rect x="128" y="288" width="16" height="16" fill="#C6B6EE"/>
<rect x="160" y="288" width="16" height="16" fill="#9A82E6"/>
<rect x="192" y="288" width="16" height="16" fill="#C6B6EE"/>
<rect x="224" y="288" width="16" height="16" fill="#9A82E6"/>
<rect x="288" y="288" width="16" height="16" fill="#9A82E6"/>
<rect x="320" y="288" width="16" height="16" fill="#C6B6EE"/>
<rect x="384" y="288" width="16" height="16" fill="#C6B6EE"/>
<rect x="448" y="288" width="16" height="16" fill="#C6B6EE"/>
<rect x="464" y="288" width="16" height="16" fill="#8CC7F2"/>
<rect x="480" y="288" width="16" height="16" fill="#9A82E6"/>
<rect x="80" y="304" width="16" height="16" fill="#C6B6EE"/>
<rect x="112" y="304" width="16" height="16" fill="#9A82E6"/>
<rect x="144" y="304" width="16" height="16" fill="#C6B6EE"/>
<rect x="176" y="304" width="16" height="16" fill="#9A82E6"/>
<rect x="208" y="304" width="16" height="16" fill="#C6B6EE"/>
<rect x="240" y="304" width="16" height="16" fill="#9A82E6"/>
<rect x="288" y="304" width="16" height="16" fill="#8CC7F2"/>
<rect x="304" y="304" width="16" height="16" fill="#9A82E6"/>
<rect x="320" y="304" width="16" height="16" fill="#AFA4F0"/>
<rect x="336" y="304" width="16" height="16" fill="#C6B6EE"/>
<rect x="384" y="304" width="16" height="16" fill="#AFA4F0"/>
<rect x="400" y="304" width="16" height="16" fill="#C6B6EE"/>
<rect x="416" y="304" width="16" height="16" fill="#8CC7F2"/>
<rect x="480" y="304" width="16" height="16" fill="#8CC7F2"/>
<rect x="496" y="304" width="16" height="16" fill="#9A82E6"/>
<rect x="96" y="320" width="16" height="16" fill="#C6B6EE"/>
<rect x="128" y="320" width="16" height="16" fill="#9A82E6"/>
<rect x="160" y="320" width="16" height="16" fill="#C6B6EE"/>
<rect x="192" y="320" width="16" height="16" fill="#9A82E6"/>
<rect x="224" y="320" width="16" height="16" fill="#C6B6EE"/>
<rect x="240" y="320" width="16" height="16" fill="#8CC7F2"/>
<rect x="256" y="320" width="16" height="16" fill="#9A82E6"/>
<rect x="304" y="320" width="16" height="16" fill="#8CC7F2"/>
<rect x="384" y="320" width="16" height="16" fill="#9A82E6"/>
<rect x="400" y="320" width="16" height="16" fill="#AFA4F0"/>
<rect x="416" y="320" width="16" height="16" fill="#C6B6EE"/>
<rect x="448" y="320" width="16" height="16" fill="#9A82E6"/>
<rect x="496" y="320" width="16" height="16" fill="#8CC7F2"/>
<rect x="80" y="336" width="16" height="16" fill="#9A82E6"/>
<rect x="112" y="336" width="16" height="16" fill="#C6B6EE"/>
<rect x="144" y="336" width="16" height="16" fill="#9A82E6"/>
<rect x="176" y="336" width="16" height="16" fill="#C6B6EE"/>
<rect x="208" y="336" width="16" height="16" fill="#9A82E6"/>
<rect x="224" y="336" width="16" height="16" fill="#AFA4F0"/>
<rect x="240" y="336" width="16" height="16" fill="#C6B6EE"/>
<rect x="272" y="336" width="16" height="16" fill="#9A82E6"/>
<rect x="304" y="336" width="16" height="16" fill="#C6B6EE"/>
<rect x="320" y="336" width="16" height="16" fill="#8CC7F2"/>
<rect x="368" y="336" width="16" height="16" fill="#C6B6EE"/>
<rect x="384" y="336" width="16" height="16" fill="#8CC7F2"/>
<rect x="416" y="336" width="16" height="16" fill="#AFA4F0"/>
<rect x="480" y="336" width="16" height="16" fill="#AFA4F0"/>
<rect x="496" y="336" width="16" height="16" fill="#C6B6EE"/>
<rect x="96" y="352" width="16" height="16" fill="#9A82E6"/>
<rect x="128" y="352" width="16" height="16" fill="#C6B6EE"/>
<rect x="160" y="352" width="16" height="16" fill="#9A82E6"/>
<rect x="192" y="352" width="16" height="16" fill="#C6B6EE"/>
<rect x="240" y="352" width="16" height="16" fill="#AFA4F0"/>
<rect x="256" y="352" width="16" height="16" fill="#C6B6EE"/>
<rect x="272" y="352" width="16" height="16" fill="#8CC7F2"/>
<rect x="320" y="352" width="16" height="16" fill="#C6B6EE"/>
<rect x="352" y="352" width="16" height="16" fill="#9A82E6"/>
<rect x="400" y="352" width="16" height="16" fill="#8CC7F2"/>
<rect x="464" y="352" width="16" height="16" fill="#8CC7F2"/>
<rect x="480" y="352" width="16" height="16" fill="#9A82E6"/>
<rect x="80" y="368" width="16" height="16" fill="#C6B6EE"/>
<rect x="112" y="368" width="16" height="16" fill="#9A82E6"/>
<rect x="144" y="368" width="16" height="16" fill="#C6B6EE"/>
<rect x="176" y="368" width="16" height="16" fill="#9A82E6"/>
<rect x="208" y="368" width="16" height="16" fill="#C6B6EE"/>
<rect x="224" y="368" width="16" height="16" fill="#8CC7F2"/>
<rect x="272" y="368" width="16" height="16" fill="#C6B6EE"/>
<rect x="288" y="368" width="16" height="16" fill="#8CC7F2"/>
<rect x="304" y="368" width="16" height="16" fill="#9A82E6"/>
<rect x="320" y="368" width="16" height="16" fill="#AFA4F0"/>
<rect x="352" y="368" width="16" height="16" fill="#8CC7F2"/>
<rect x="368" y="368" width="16" height="16" fill="#9A82E6"/>
<rect x="384" y="368" width="16" height="16" fill="#AFA4F0"/>
<rect x="400" y="368" width="16" height="16" fill="#C6B6EE"/>
<rect x="416" y="368" width="16" height="16" fill="#8CC7F2"/>
<rect x="432" y="368" width="16" height="16" fill="#9A82E6"/>
<rect x="448" y="368" width="16" height="16" fill="#AFA4F0"/>
<rect x="176" y="384" width="16" height="16" fill="#8CC7F2"/>
<rect x="192" y="384" width="16" height="16" fill="#9A82E6"/>
<rect x="224" y="384" width="16" height="16" fill="#C6B6EE"/>
<rect x="272" y="384" width="16" height="16" fill="#AFA4F0"/>
<rect x="304" y="384" width="16" height="16" fill="#8CC7F2"/>
<rect x="368" y="384" width="16" height="16" fill="#8CC7F2"/>
<rect x="432" y="384" width="16" height="16" fill="#8CC7F2"/>
<rect x="448" y="384" width="16" height="16" fill="#9A82E6"/>
<rect x="480" y="384" width="16" height="16" fill="#C6B6EE"/>
<rect x="496" y="384" width="16" height="16" fill="#8CC7F2"/>
<rect x="48" y="400" width="16" height="16" fill="#C6B6EE"/>
<rect x="64" y="400" width="16" height="16" fill="#8CC7F2"/>
<rect x="80" y="400" width="16" height="16" fill="#9A82E6"/>
<rect x="96" y="400" width="16" height="16" fill="#AFA4F0"/>
<rect x="112" y="400" width="16" height="16" fill="#C6B6EE"/>
<rect x="128" y="400" width="16" height="16" fill="#8CC7F2"/>
<rect x="144" y="400" width="16" height="16" fill="#9A82E6"/>
<rect x="176" y="400" width="16" height="16" fill="#C6B6EE"/>
<rect x="208" y="400" width="16" height="16" fill="#9A82E6"/>
<rect x="256" y="400" width="16" height="16" fill="#8CC7F2"/>
<rect x="336" y="400" width="16" height="16" fill="#9A82E6"/>
<rect x="352" y="400" width="16" height="16" fill="#AFA4F0"/>
<rect x="368" y="400" width="16" height="16" fill="#C6B6EE"/>
<rect x="400" y="400" width="16" height="16" fill="#9A82E6"/>
<rect x="432" y="400" width="16" height="16" fill="#C6B6EE"/>
<rect x="480" y="400" width="16" height="16" fill="#AFA4F0"/>
<rect x="496" y="400" width="16" height="16" fill="#C6B6EE"/>
<rect x="48" y="416" width="16" height="16" fill="#AFA4F0"/>
<rect x="144" y="416" width="16" height="16" fill="#8CC7F2"/>
<rect x="176" y="416" width="16" height="16" fill="#AFA4F0"/>
<rect x="192" y="416" width="16" height="16" fill="#C6B6EE"/>
<rect x="224" y="416" width="16" height="16" fill="#9A82E6"/>
<rect x="288" y="416" width="16" height="16" fill="#9A82E6"/>
<rect x="320" y="416" width="16" height="16" fill="#C6B6EE"/>
<rect x="336" y="416" width="16" height="16" fill="#8CC7F2"/>
<rect x="352" y="416" width="16" height="16" fill="#9A82E6"/>
<rect x="368" y="416" width="16" height="16" fill="#AFA4F0"/>
<rect x="432" y="416" width="16" height="16" fill="#AFA4F0"/>
<rect x="464" y="416" width="16" height="16" fill="#8CC7F2"/>
<rect x="480" y="416" width="16" height="16" fill="#9A82E6"/>
<rect x="496" y="416" width="16" height="16" fill="#AFA4F0"/>
<rect x="48" y="432" width="16" height="16" fill="#9A82E6"/>
<rect x="80" y="432" width="16" height="16" fill="#C6B6EE"/>
<rect x="96" y="432" width="16" height="16" fill="#8CC7F2"/>
<rect x="112" y="432" width="16" height="16" fill="#9A82E6"/>
<rect x="144" y="432" width="16" height="16" fill="#C6B6EE"/>
<rect x="176" y="432" width="16" height="16" fill="#9A82E6"/>
<rect x="208" y="432" width="16" height="16" fill="#C6B6EE"/>
<rect x="240" y="432" width="16" height="16" fill="#9A82E6"/>
<rect x="304" y="432" width="16" height="16" fill="#9A82E6"/>
<rect x="320" y="432" width="16" height="16" fill="#AFA4F0"/>
<rect x="368" y="432" width="16" height="16" fill="#9A82E6"/>
<rect x="384" y="432" width="16" height="16" fill="#AFA4F0"/>
<rect x="400" y="432" width="16" height="16" fill="#C6B6EE"/>
<rect x="416" y="432" width="16" height="16" fill="#8CC7F2"/>
<rect x="432" y="432" width="16" height="16" fill="#9A82E6"/>
<rect x="448" y="432" width="16" height="16" fill="#AFA4F0"/>
<rect x="480" y="432" width="16" height="16" fill="#8CC7F2"/>
<rect x="496" y="432" width="16" height="16" fill="#9A82E6"/>
<rect x="48" y="448" width="16" height="16" fill="#8CC7F2"/>
<rect x="80" y="448" width="16" height="16" fill="#AFA4F0"/>
<rect x="96" y="448" width="16" height="16" fill="#C6B6EE"/>
<rect x="112" y="448" width="16" height="16" fill="#8CC7F2"/>
<rect x="144" y="448" width="16" height="16" fill="#AFA4F0"/>
<rect x="192" y="448" width="16" height="16" fill="#9A82E6"/>
<rect x="224" y="448" width="16" height="16" fill="#C6B6EE"/>
<rect x="240" y="448" width="16" height="16" fill="#8CC7F2"/>
<rect x="256" y="448" width="16" height="16" fill="#9A82E6"/>
<rect x="288" y="448" width="16" height="16" fill="#C6B6EE"/>
<rect x="304" y="448" width="16" height="16" fill="#8CC7F2"/>
<rect x="384" y="448" width="16" height="16" fill="#9A82E6"/>
<rect x="480" y="448" width="16" height="16" fill="#C6B6EE"/>
<rect x="496" y="448" width="16" height="16" fill="#8CC7F2"/>
<rect x="48" y="464" width="16" height="16" fill="#C6B6EE"/>
<rect x="80" y="464" width="16" height="16" fill="#9A82E6"/>
<rect x="96" y="464" width="16" height="16" fill="#AFA4F0"/>
<rect x="112" y="464" width="16" height="16" fill="#C6B6EE"/>
<rect x="144" y="464" width="16" height="16" fill="#9A82E6"/>
<rect x="176" y="464" width="16" height="16" fill="#C6B6EE"/>
<rect x="208" y="464" width="16" height="16" fill="#9A82E6"/>
<rect x="224" y="464" width="16" height="16" fill="#AFA4F0"/>
<rect x="240" y="464" width="16" height="16" fill="#C6B6EE"/>
<rect x="272" y="464" width="16" height="16" fill="#9A82E6"/>
<rect x="320" y="464" width="16" height="16" fill="#8CC7F2"/>
<rect x="384" y="464" width="16" height="16" fill="#8CC7F2"/>
<rect x="432" y="464" width="16" height="16" fill="#C6B6EE"/>
<rect x="496" y="464" width="16" height="16" fill="#C6B6EE"/>
<rect x="48" y="480" width="16" height="16" fill="#AFA4F0"/>
<rect x="144" y="480" width="16" height="16" fill="#8CC7F2"/>
<rect x="176" y="480" width="16" height="16" fill="#AFA4F0"/>
<rect x="192" y="480" width="16" height="16" fill="#C6B6EE"/>
<rect x="240" y="480" width="16" height="16" fill="#AFA4F0"/>
<rect x="256" y="480" width="16" height="16" fill="#C6B6EE"/>
<rect x="272" y="480" width="16" height="16" fill="#8CC7F2"/>
<rect x="304" y="480" width="16" height="16" fill="#AFA4F0"/>
<rect x="320" y="480" width="16" height="16" fill="#C6B6EE"/>
<rect x="336" y="480" width="16" height="16" fill="#8CC7F2"/>
<rect x="368" y="480" width="16" height="16" fill="#AFA4F0"/>
<rect x="384" y="480" width="16" height="16" fill="#C6B6EE"/>
<rect x="416" y="480" width="16" height="16" fill="#9A82E6"/>
<rect x="432" y="480" width="16" height="16" fill="#AFA4F0"/>
<rect x="464" y="480" width="16" height="16" fill="#8CC7F2"/>
<rect x="480" y="480" width="16" height="16" fill="#9A82E6"/>
<rect x="48" y="496" width="16" height="16" fill="#9A82E6"/>
<rect x="64" y="496" width="16" height="16" fill="#AFA4F0"/>
<rect x="80" y="496" width="16" height="16" fill="#C6B6EE"/>
<rect x="96" y="496" width="16" height="16" fill="#8CC7F2"/>
<rect x="112" y="496" width="16" height="16" fill="#9A82E6"/>
<rect x="128" y="496" width="16" height="16" fill="#AFA4F0"/>
<rect x="144" y="496" width="16" height="16" fill="#C6B6EE"/>
<rect x="176" y="496" width="16" height="16" fill="#9A82E6"/>
<rect x="208" y="496" width="16" height="16" fill="#C6B6EE"/>
<rect x="224" y="496" width="16" height="16" fill="#8CC7F2"/>
<rect x="272" y="496" width="16" height="16" fill="#C6B6EE"/>
<rect x="288" y="496" width="16" height="16" fill="#8CC7F2"/>
<rect x="304" y="496" width="16" height="16" fill="#9A82E6"/>
<rect x="320" y="496" width="16" height="16" fill="#AFA4F0"/>
<rect x="336" y="496" width="16" height="16" fill="#C6B6EE"/>
<rect x="368" y="496" width="16" height="16" fill="#9A82E6"/>
<rect x="384" y="496" width="16" height="16" fill="#AFA4F0"/>
<rect x="400" y="496" width="16" height="16" fill="#C6B6EE"/>
<rect x="416" y="496" width="16" height="16" fill="#8CC7F2"/>
<rect x="432" y="496" width="16" height="16" fill="#9A82E6"/>
<rect x="448" y="496" width="16" height="16" fill="#AFA4F0"/>
<rect x="464" y="496" width="16" height="16" fill="#C6B6EE"/>
<rect x="480" y="496" width="16" height="16" fill="#8CC7F2"/>
<rect x="496" y="496" width="16" height="16" fill="#9A82E6"/>
</svg>